<svg width="21" height="19" viewBox="0 0 21 19" fill="none" xmlns="http://www.w3.org/2000/svg">
<path fill-rule="evenodd" clip-rule="evenodd" d="M18.5577 5.11079H17.977L14.3433 0.393129C14.0099 -0.041861 13.3814 -0.129252 12.9385 0.198196C12.4947 0.524678 12.4058 1.1431 12.7391 1.57809L15.4664 5.11087L5.75724 5.11087L8.48452 1.57809C8.81786 1.14502 8.73184 0.528538 8.29096 0.200113C7.85008 -0.127327 7.22152 -0.0418708 6.88815 0.391204L3.24669 5.11083H2.41577C1.24172 5.12139 0.241674 5.95298 0.0373655 7.08897C-0.166943 8.22496 0.48312 9.34175 1.58289 9.74684L2.64648 16.1066C2.92021 17.7736 4.38555 19 6.104 19L14.8629 19C16.5805 19.0019 18.0459 17.7805 18.3245 16.1165L19.39 9.74709C20.5044 9.35146 21.1682 8.22604 20.9629 7.07938C20.7566 5.93378 19.7419 5.09836 18.5571 5.10124L18.5577 5.11079ZM2.4162 7.0774L18.5577 7.0774C18.7991 7.0774 18.9956 7.26945 18.9956 7.50759C18.9956 7.74478 18.7991 7.93779 18.5577 7.93779L2.4162 7.93779C2.17474 7.93779 1.97825 7.74478 1.97825 7.50759C1.97825 7.26945 2.17474 7.0774 2.4162 7.0774ZM6.11047 17.0334L14.8694 17.0334H14.8695C15.6017 17.0334 16.2283 16.5139 16.3505 15.8042L17.3368 9.9044L3.64212 9.9044L4.62848 15.8042C4.75068 16.5139 5.37729 17.0334 6.11047 17.0334ZM12.9733 11.2593L7.32667 11.2593C6.7592 11.2593 6.3 11.7324 6.3 12.3148C6.3 12.8982 6.7592 13.3704 7.32667 13.3704L12.9733 13.3704C13.5408 13.3704 14 12.8982 14 12.3148C14 11.7324 13.5408 11.2593 12.9733 11.2593ZM7.32667 14.0741L12.9733 14.0741C13.5408 14.0741 14 14.5472 14 15.1296C14 15.7131 13.5408 16.1852 12.9733 16.1852H7.32667C6.7592 16.1852 6.3 15.7131 6.3 15.1296C6.3 14.5472 6.7592 14.0741 7.32667 14.0741Z" fill="white"/>
</svg>
